<svg width="26" height="26" viewBox="0 0 26 26" fill="none" xmlns="http://www.w3.org/2000/svg">
<g clip-path="url(#clip0_0_955)">
<path d="M13 11.4682L17.6554 6.81282C18.046 6.4223 18.6791 6.4223 19.0697 6.81282L19.1873 6.93044C19.5778 7.32096 19.5778 7.95413 19.1873 8.34465L14.5319 13L19.1873 17.6554C19.5778 18.046 19.5778 18.6791 19.1873 19.0697L19.0697 19.1873C18.6791 19.5778 18.046 19.5778 17.6554 19.1873L13 14.5319L8.34465 19.1873C7.95413 19.5778 7.32096 19.5778 6.93044 19.1873L6.81282 19.0697C6.4223 18.6791 6.4223 18.046 6.81282 17.6554L11.4682 13L6.81282 8.34465C6.4223 7.95413 6.4223 7.32096 6.81282 6.93044L6.93044 6.81282C7.32096 6.4223 7.95413 6.4223 8.34465 6.81282L13 11.4682Z" fill="black"/>
</g>
<defs>
<clipPath id="clip0_0_955">
<rect width="26" height="26" fill="white"/>
</clipPath>
</defs>
</svg>
