<svg width="26" height="26" viewBox="0 0 26 26" fill="none" xmlns="http://www.w3.org/2000/svg">
<g clip-path="url(#clip0_0_821)">
<path d="M22.75 5.41536C22.75 4.81706 22.265 4.33203 21.6667 4.33203H4.33333C3.73503 4.33203 3.25 4.81706 3.25 5.41536C3.25 6.01367 3.73502 6.4987 4.33333 6.4987H21.6667C22.265 6.4987 22.75 6.01367 22.75 5.41536ZM22.75 12.9987C22.75 12.4004 22.265 11.9154 21.6667 11.9154H10.8333C10.235 11.9154 9.75 12.4004 9.75 12.9987C9.75 13.597 10.235 14.082 10.8333 14.082H21.6667C22.265 14.082 22.75 13.597 22.75 12.9987ZM22.75 20.582C22.75 19.9837 22.265 19.4987 21.6667 19.4987H4.33333C3.73503 19.4987 3.25 19.9837 3.25 20.582C3.25 21.1803 3.73502 21.6654 4.33333 21.6654H21.6667C22.265 21.6654 22.75 21.1803 22.75 20.582Z" fill="white"/>
</g>
<defs>
<clipPath id="clip0_0_821">
<rect width="26" height="26" fill="white" transform="matrix(-1 0 0 1 26 0)"/>
</clipPath>
</defs>
</svg>
